<?xml version="1.0" standalone="no"?>
<!DOCTYPE svg PUBLIC "-//W3C//DTD SVG 20010904//EN"
 "http://www.w3.org/TR/2001/REC-SVG-20010904/DTD/svg10.dtd">
<svg version="1.0" xmlns="http://www.w3.org/2000/svg"
 width="900.000000pt" height="900.000000pt" viewBox="0 0 900.000000 900.000000"
 preserveAspectRatio="xMidYMid meet">

<g transform="translate(0.000000,900.000000) scale(0.100000,-0.100000)"
fill="#000000" stroke="none">
<path d="M4010 7870 c-8 -6 -31 -14 -50 -20 -54 -15 -136 -83 -276 -230 -124
-130 -482 -505 -534 -559 -14 -14 -65 -69 -115 -121 -49 -52 -180 -189 -290
-304 -110 -115 -205 -214 -210 -220 -6 -6 -97 -102 -203 -213 l-193 -202 -424
-3 c-412 -3 -424 -4 -452 -24 -41 -30 -59 -92 -41 -146 7 -23 26 -51 41 -62
27 -20 44 -21 317 -26 l289 -5 -12 -21 c-7 -12 -29 -51 -50 -87 -52 -90 -73
-201 -57 -300 7 -40 18 -86 25 -104 7 -17 11 -34 7 -37 -3 -3 -331 -6 -728 -6
l-723 0 -35 34 -36 33 0 209 c0 224 3 238 53 266 15 9 93 15 246 18 l223 5 34
39 c18 21 36 51 39 67 8 33 -15 86 -51 120 -26 24 -26 24 -278 24 -228 0 -256
-2 -296 -20 -80 -35 -155 -100 -191 -165 -35 -65 -39 -94 -39 -349 0 -277 2
-292 58 -378 76 -119 200 -173 392 -173 l106 0 17 -67 c9 -38 17 -77 17 -88 0
-11 6 -49 14 -85 8 -36 22 -103 31 -150 9 -47 22 -116 30 -155 8 -38 21 -108
30 -155 17 -86 34 -178 59 -305 20 -100 44 -222 62 -317 8 -46 21 -114 29
-153 7 -38 20 -107 29 -152 9 -46 23 -120 32 -165 9 -46 22 -114 29 -153 8
-38 21 -108 30 -155 38 -193 45 -229 60 -310 9 -47 22 -116 30 -155 8 -38 22
-108 31 -155 9 -47 22 -116 29 -155 20 -103 44 -226 49 -255 43 -248 143 -421
316 -546 56 -40 179 -104 202 -104 7 0 33 -8 58 -18 42 -16 206 -17 2745 -17
2582 0 2703 1 2765 18 36 10 78 25 93 33 16 8 32 14 37 14 23 0 142 82 204
140 116 109 185 234 220 398 9 39 23 102 31 140 25 109 21 146 -19 190 -33 35
-38 37 -96 37 -60 0 -64 -2 -96 -39 -19 -22 -36 -54 -39 -75 -50 -330 -122
-455 -314 -549 l-76 -37 -2665 -3 c-1700 -1 -2683 1 -2717 8 -116 21 -252 119
-312 224 -32 55 -71 166 -71 201 0 11 -7 54 -16 95 -17 83 -35 172 -60 300 -9
47 -22 117 -29 155 -8 39 -21 108 -30 155 -9 47 -22 117 -30 155 -8 39 -21
108 -30 155 -9 47 -22 117 -30 155 -7 39 -21 108 -30 155 -9 47 -22 117 -30
155 -8 39 -21 108 -30 155 -21 108 -39 202 -60 310 -22 109 -40 204 -60 310
-9 47 -22 117 -30 155 -8 39 -21 108 -30 155 -9 47 -22 117 -30 155 -7 39 -21
108 -30 155 -8 47 -23 115 -31 152 -9 37 -13 72 -9 78 4 7 1173 10 3661 10
l3654 0 0 -30 c0 -17 -6 -59 -14 -93 -14 -60 -30 -140 -62 -312 -19 -100 -38
-196 -59 -305 -22 -109 -40 -204 -60 -310 -9 -47 -22 -116 -30 -155 -8 -38
-21 -108 -30 -155 -9 -47 -23 -116 -30 -155 -8 -38 -21 -108 -30 -155 -9 -47
-22 -116 -30 -155 -8 -38 -21 -107 -29 -152 -34 -180 -48 -251 -63 -316 -14
-64 -14 -71 3 -108 33 -75 106 -105 175 -73 41 18 79 72 79 111 0 10 6 47 15
83 8 36 22 103 31 150 9 47 22 117 29 155 8 39 21 108 30 155 9 47 22 117 30
155 26 130 67 344 90 465 9 47 22 117 30 155 8 39 21 107 29 153 18 91 41 211
62 317 24 122 42 217 58 303 27 142 48 247 52 260 2 8 33 12 106 12 190 0 313
55 391 173 19 28 37 64 41 80 3 15 13 27 21 27 13 0 15 38 15 271 0 177 -3
268 -10 264 -5 -3 -15 7 -21 22 -42 106 -107 175 -214 228 -39 19 -65 20 -976
23 l-936 3 -94 97 c-52 53 -175 182 -274 286 -99 104 -196 205 -215 225 -19
21 -114 120 -210 221 -96 101 -191 200 -210 221 -19 20 -118 124 -220 230
-102 107 -226 237 -275 289 -201 214 -251 255 -353 290 -52 18 -78 21 -174 17
-130 -4 -179 -19 -256 -78 -56 -41 -91 -49 -112 -23 -19 22 -97 66 -155 86
-55 20 -258 25 -285 8z m204 -261 c95 -26 162 -148 136 -247 -15 -54 -35 -84
-114 -167 -32 -33 -135 -141 -229 -240 -95 -99 -217 -227 -272 -285 -55 -58
-141 -148 -192 -200 -50 -52 -110 -115 -134 -140 -23 -25 -85 -90 -138 -145
-53 -55 -170 -179 -261 -274 -91 -96 -183 -193 -205 -215 -22 -23 -85 -89
-140 -147 -250 -263 -322 -331 -362 -350 -135 -62 -293 44 -293 196 0 87 9 98
359 465 191 199 302 316 506 530 55 58 118 123 140 146 22 23 112 117 200 209
88 93 174 183 190 200 17 18 104 110 195 205 304 320 444 458 470 463 47 8
105 7 144 -4z m712 -9 c28 -14 108 -89 236 -222 228 -237 216 -225 343 -358
164 -173 448 -471 475 -499 14 -14 72 -76 130 -136 57 -61 156 -164 220 -230
660 -690 640 -666 640 -760 0 -152 -160 -258 -295 -196 -38 18 -125 102 -361
351 -54 58 -117 123 -139 146 -22 23 -112 117 -200 210 -88 93 -210 221 -270
284 -61 63 -149 155 -195 204 -47 48 -107 112 -135 140 -27 29 -122 128 -210
221 -88 93 -206 217 -262 275 -252 261 -254 264 -273 332 -44 166 139 313 296
238z m-334 -627 c88 -92 291 -304 313 -329 6 -6 98 -103 205 -215 337 -351
390 -408 390 -419 0 -7 -336 -10 -1010 -10 -665 0 -1010 3 -1010 10 0 5 89
103 197 217 109 115 202 213 208 219 5 7 53 56 105 110 53 55 149 155 215 224
245 257 278 290 285 290 4 0 50 -44 102 -97z m1354 -1420 c98 -104 212 -223
254 -266 41 -43 76 -85 78 -92 3 -13 -228 -15 -1788 -15 -1567 0 -1791 2
-1788 15 2 8 39 52 83 97 44 46 159 165 254 266 l174 182 1277 0 1277 0 179
-187z m2708 173 c63 -26 66 -37 66 -270 l0 -209 -36 -33 -35 -34 -723 0 c-397
0 -726 3 -729 6 -3 4 -2 15 4 26 6 10 17 53 25 96 23 123 -5 256 -78 362 -13
19 -27 43 -31 53 -6 16 34 17 749 17 623 0 760 -2 788 -14z"/>
<path d="M2650 4251 c-96 -15 -224 -105 -269 -188 -52 -96 -64 -207 -37 -339
8 -38 21 -112 30 -164 9 -52 23 -129 31 -170 7 -41 21 -115 29 -165 38 -226
49 -284 62 -342 8 -34 14 -72 14 -85 0 -13 6 -54 14 -93 8 -38 22 -112 30
-162 40 -233 49 -282 63 -341 21 -85 44 -128 103 -188 90 -92 225 -137 343
-115 172 34 295 156 326 328 12 63 10 83 -24 273 -7 41 -21 120 -30 175 -9 55
-23 128 -31 162 -8 34 -14 72 -14 85 0 13 -6 55 -14 93 -8 39 -22 115 -31 170
-9 55 -23 128 -31 162 -7 34 -14 72 -14 85 0 12 -6 55 -14 93 -8 39 -22 115
-31 170 -38 234 -63 333 -91 366 -8 8 -14 20 -14 25 0 13 -81 92 -111 109 -95
53 -190 72 -289 56z m125 -271 c15 -6 33 -16 40 -24 22 -21 44 -83 50 -139 4
-29 12 -81 20 -117 13 -63 29 -153 61 -342 8 -51 22 -124 30 -163 8 -38 14
-80 14 -93 0 -13 6 -51 14 -85 8 -34 22 -107 31 -162 16 -101 33 -195 56 -315
12 -66 23 -136 35 -226 14 -108 -80 -186 -174 -144 -66 30 -80 64 -112 275 -5
33 -14 87 -20 120 -22 116 -39 211 -55 305 -9 52 -23 127 -31 165 -8 39 -14
80 -14 93 0 13 -6 51 -14 85 -8 34 -22 107 -31 162 -19 119 -39 228 -56 310
-6 33 -14 98 -16 145 -4 77 -3 88 17 113 36 45 96 59 155 37z"/>
<path d="M4415 4251 c-115 -21 -231 -113 -284 -226 l-31 -66 2 -892 3 -892 28
-55 c61 -120 158 -191 299 -221 64 -13 147 -1 225 33 63 28 154 117 188 185
l30 58 3 892 2 892 -31 66 c-77 163 -260 258 -434 226z m168 -300 l32 -31 0
-844 c0 -830 0 -844 -20 -866 -60 -66 -150 -66 -210 0 -20 22 -20 36 -20 865
l0 843 25 27 c34 37 57 45 113 41 39 -3 55 -10 80 -35z"/>
<path d="M6180 4250 c-44 -8 -96 -28 -135 -53 -34 -21 -107 -91 -117 -112 -5
-11 -20 -40 -33 -65 -13 -25 -24 -54 -24 -65 -1 -11 -7 -51 -15 -90 -8 -38
-22 -115 -31 -170 -9 -55 -22 -134 -30 -175 -19 -104 -62 -346 -90 -510 -9
-52 -23 -129 -30 -170 -17 -90 -38 -213 -59 -335 -9 -49 -20 -118 -26 -152
-36 -211 108 -411 328 -454 115 -22 251 23 338 111 80 81 102 137 138 350 9
52 24 136 32 185 8 50 22 124 29 165 8 41 21 114 29 163 9 48 22 124 30 170 8
45 22 125 31 177 9 52 23 129 30 170 8 41 22 118 31 170 9 52 22 126 30 164
36 178 6 307 -98 414 -88 91 -231 136 -358 112z m173 -300 c28 -32 29 -35 24
-119 -2 -47 -10 -113 -16 -146 -17 -82 -37 -191 -56 -310 -9 -55 -23 -128 -31
-162 -8 -34 -14 -72 -14 -85 0 -13 -6 -54 -14 -93 -8 -38 -22 -115 -31 -170
-10 -55 -23 -128 -31 -162 -8 -34 -14 -72 -14 -85 0 -13 -6 -54 -14 -93 -8
-38 -22 -115 -32 -170 -19 -116 -30 -142 -74 -172 -61 -42 -150 -20 -185 46
-22 44 -22 49 20 281 8 41 21 118 30 170 22 129 43 250 60 340 7 41 21 118 30
170 31 182 71 406 90 510 7 41 17 97 20 123 16 124 62 170 159 163 41 -3 55
-9 79 -36z"/>
</g>
</svg>
